<svg width="128" height="128" viewBox="0 0 128 128" fill="none" xmlns="http://www.w3.org/2000/svg">
<rect width="128" height="128" fill="url(#paint0_linear_16_137)"/>
<path d="M41.88 64.4575L28.0275 76L41.88 87.5425C42.3394 87.919 42.7198 88.3827 42.9991 88.9069C43.2784 89.4311 43.4512 90.0054 43.5074 90.5967C43.5637 91.188 43.5023 91.7846 43.3269 92.3521C43.1515 92.9196 42.8654 93.4467 42.4853 93.9031C42.1051 94.3595 41.6384 94.7361 41.1119 95.0112C40.5855 95.2863 40.0098 95.4545 39.4181 95.506C38.8264 95.5576 38.2303 95.4915 37.6642 95.3115C37.0982 95.1315 36.5734 94.8413 36.12 94.4575L18.12 79.4575C17.6131 79.0352 17.2052 78.5066 16.9253 77.9091C16.6453 77.3116 16.5002 76.6598 16.5002 76C16.5002 75.3402 16.6453 74.6884 16.9253 74.0909C17.2052 73.4934 17.6131 72.9648 18.12 72.5425L36.12 57.5425C37.0383 56.79 38.2168 56.4308 39.3987 56.5433C40.5806 56.6557 41.6701 57.2307 42.43 58.1429C43.1899 59.0552 43.5584 60.2307 43.4554 61.4135C43.3524 62.5962 42.7861 63.6904 41.88 64.4575ZM107.88 72.5425L89.88 57.5425C89.4267 57.1587 88.9019 56.8685 88.3358 56.6885C87.7698 56.5085 87.1737 56.4424 86.5819 56.4939C85.9902 56.5455 85.4145 56.7137 84.8881 56.9888C84.3617 57.2639 83.8949 57.6405 83.5148 58.0969C83.1346 58.5533 82.8486 59.0804 82.6731 59.6479C82.4977 60.2154 82.4364 60.8119 82.4926 61.4032C82.5489 61.9946 82.7217 62.5689 83.001 63.0931C83.2803 63.6173 83.6606 64.081 84.12 64.4575L97.9725 76L84.12 87.5425C83.6606 87.919 83.2803 88.3827 83.001 88.9069C82.7217 89.4311 82.5489 90.0054 82.4926 90.5967C82.4364 91.188 82.4977 91.7846 82.6731 92.3521C82.8486 92.9196 83.1346 93.4467 83.5148 93.9031C83.8949 94.3595 84.3617 94.7361 84.8881 95.0112C85.4145 95.2863 85.9902 95.4545 86.5819 95.506C87.1737 95.5576 87.7698 95.4915 88.3358 95.3115C88.9019 95.1315 89.4267 94.8413 89.88 94.4575L107.88 79.4575C108.387 79.0352 108.795 78.5066 109.075 77.9091C109.355 77.3116 109.5 76.6598 109.5 76C109.5 75.3402 109.355 74.6884 109.075 74.0909C108.795 73.4934 108.387 72.9648 107.88 72.5425ZM76.5375 38.77C75.982 38.568 75.3922 38.4774 74.8017 38.5034C74.2112 38.5294 73.6316 38.6714 73.096 38.9215C72.5604 39.1715 72.0793 39.5246 71.6802 39.9606C71.2811 40.3966 70.9718 40.9069 70.77 41.4625L46.77 107.462C46.3632 108.584 46.4183 109.821 46.9232 110.902C47.4281 111.983 48.3414 112.819 49.4625 113.226C49.9547 113.408 50.4753 113.501 51 113.5C51.9239 113.5 52.8255 113.216 53.5823 112.686C54.3391 112.156 54.9144 111.406 55.23 110.537L79.23 44.5375C79.432 43.982 79.5226 43.3922 79.4966 42.8017C79.4707 42.2112 79.3286 41.6316 79.0785 41.096C78.8285 40.5604 78.4754 40.0793 78.0394 39.6802C77.6034 39.2811 77.0931 38.9718 76.5375 38.77Z" fill="url(#paint1_linear_16_137)"/>
<path d="M97.1814 29.1836C97.047 28.8579 96.8146 28.5792 96.5144 28.384C96.2142 28.1889 95.8603 28.0863 95.499 28.0897C95.1377 28.0931 94.7858 28.2024 94.4894 28.4032C94.1929 28.6041 93.9658 28.8871 93.8376 29.2153L92.2774 33.1819C92.1904 33.4063 92.0565 33.6108 91.8842 33.7826C91.7119 33.9544 91.5049 34.0898 91.2762 34.1802L87.2376 35.7775C86.9031 35.9106 86.6174 36.138 86.4174 36.4304C86.2173 36.7227 86.1122 37.0666 86.1155 37.4176C86.1188 37.7685 86.2305 38.1104 86.436 38.3989C86.6416 38.6875 86.9315 38.9094 87.2684 39.0361L91.3329 40.5567C91.5632 40.6425 91.7729 40.7734 91.949 40.9412C92.1251 41.109 92.2638 41.3102 92.3565 41.5322L93.9915 45.4649C94.1259 45.7906 94.3583 46.0693 94.6585 46.2645C94.9587 46.4597 95.3126 46.5623 95.6739 46.5589C96.0352 46.5554 96.3871 46.4462 96.6835 46.2453C96.98 46.0445 97.2071 45.7615 97.3353 45.4333L98.8955 41.4667C98.984 41.2429 99.1188 41.0392 99.2917 40.8681C99.4646 40.6969 99.6718 40.5621 99.9004 40.4719L103.935 38.8747C104.27 38.7416 104.556 38.5142 104.756 38.2218C104.956 37.9294 105.061 37.5855 105.057 37.2346C105.054 36.8836 104.942 36.5418 104.737 36.2533C104.531 35.9647 104.241 35.7428 103.905 35.6161L99.84 34.0955C99.6093 34.0093 99.3994 33.8778 99.2233 33.7094C99.0472 33.5409 98.9087 33.3391 98.8164 33.1163L97.1814 29.1836Z" fill="#FFFFE7"/>
<path d="M81.2338 14.0222C81.123 13.74 80.9313 13.4985 80.6839 13.3293C80.4365 13.1601 80.1449 13.0711 79.8473 13.0739C79.5496 13.0767 79.2597 13.1712 79.0156 13.3451C78.7715 13.5189 78.5844 13.764 78.479 14.0483L77.1952 17.4838C77.1235 17.6781 77.0133 17.8553 76.8714 18.004C76.7296 18.1528 76.5591 18.2699 76.3707 18.3482L73.0441 19.7303C72.7686 19.8454 72.5333 20.0423 72.3686 20.2955C72.2039 20.5487 72.1174 20.8465 72.1203 21.1506C72.1232 21.4546 72.2153 21.7507 72.3848 22.0008C72.5542 22.2508 72.7932 22.4432 73.0708 22.5531L76.42 23.8719C76.6098 23.9464 76.7826 24.0599 76.9277 24.2053C77.0729 24.3507 77.1872 24.525 77.2637 24.7174L78.6123 28.1249C78.7231 28.4071 78.9147 28.6486 79.1621 28.8178C79.4095 28.987 79.7011 29.076 79.9988 29.0732C80.2965 29.0704 80.5863 28.9758 80.8305 28.802C81.0746 28.6281 81.2616 28.383 81.3671 28.0988L82.6509 24.6633C82.7237 24.4695 82.8347 24.293 82.9771 24.1449C83.1194 23.9967 83.2901 23.88 83.4784 23.802L86.802 22.4199C87.0775 22.3048 87.3128 22.1079 87.4775 21.8547C87.6422 21.6015 87.7287 21.3037 87.7258 20.9996C87.7229 20.6956 87.6308 20.3995 87.4613 20.1494C87.2919 19.8994 87.0529 19.707 86.7753 19.5971L83.4261 18.2783C83.236 18.2035 83.063 18.0895 82.9179 17.9435C82.7727 17.7975 82.6585 17.6226 82.5824 17.4296L81.2338 14.0222Z" fill="#FFFFE7"/>
<path d="M61.8378 22.7667C61.7547 22.555 61.611 22.3739 61.4255 22.247C61.2399 22.1201 61.0212 22.0533 60.798 22.0554C60.5747 22.0575 60.3573 22.1284 60.1742 22.2588C59.9911 22.3892 59.8508 22.573 59.7717 22.7862L58.8089 25.3628C58.7552 25.5086 58.6725 25.6414 58.5661 25.753C58.4597 25.8646 58.3318 25.9525 58.1906 26.0111L55.6956 27.0477C55.4889 27.134 55.3125 27.2817 55.189 27.4716C55.0654 27.6615 55.0006 27.8849 55.0027 28.1129C55.0049 28.3409 55.074 28.5631 55.2011 28.7506C55.3282 28.9381 55.5074 29.0824 55.7156 29.1648L58.2275 30.154C58.3698 30.2098 58.4995 30.2949 58.6083 30.404C58.7172 30.513 58.8029 30.6438 58.8603 30.7881L59.8717 33.3436C59.9548 33.5553 60.0986 33.7364 60.2841 33.8633C60.4696 33.9902 60.6883 34.057 60.9116 34.0549C61.1349 34.0528 61.3523 33.9819 61.5354 33.8515C61.7185 33.7211 61.8587 33.5373 61.9378 33.3241L62.9007 30.7475C62.9553 30.6021 63.0386 30.4698 63.1453 30.3587C63.2521 30.2475 63.3801 30.16 63.5213 30.1015L66.014 29.0649C66.2206 28.9786 66.3971 28.8309 66.5206 28.641C66.6441 28.4511 66.709 28.2277 66.7068 27.9997C66.7047 27.7717 66.6356 27.5496 66.5085 27.3621C66.3814 27.1745 66.2022 27.0302 65.994 26.9478L63.4821 25.9587C63.3395 25.9026 63.2098 25.8171 63.1009 25.7076C62.992 25.5981 62.9064 25.467 62.8493 25.3222L61.8378 22.7667Z" fill="#FFFFE7"/>
<path d="M51.1689 37.575C51.1066 37.4162 50.9988 37.2804 50.8596 37.1852C50.7205 37.0901 50.5565 37.04 50.389 37.0416C50.2216 37.0432 50.0585 37.0963 49.9212 37.1941C49.7839 37.2919 49.6787 37.4298 49.6194 37.5897L48.8972 39.5221C48.8569 39.6315 48.7949 39.7311 48.7151 39.8148C48.6353 39.8984 48.5394 39.9643 48.4335 40.0084L46.5622 40.7858C46.4073 40.8505 46.2749 40.9613 46.1823 41.1037C46.0896 41.2461 46.041 41.4137 46.0426 41.5847C46.0442 41.7557 46.096 41.9223 46.1914 42.0629C46.2867 42.2036 46.4211 42.3118 46.5773 42.3736L48.4612 43.1155C48.5679 43.1573 48.6651 43.2212 48.7468 43.303C48.8284 43.3848 48.8927 43.4828 48.9358 43.5911L49.6943 45.5077C49.7567 45.6665 49.8645 45.8023 50.0036 45.8975C50.1428 45.9927 50.3068 46.0427 50.4743 46.0412C50.6417 46.0396 50.8047 45.9864 50.9421 45.8886C51.0794 45.7908 51.1846 45.653 51.2439 45.4931L51.9661 43.5606C52.007 43.4516 52.0695 43.3523 52.1495 43.269C52.2296 43.1857 52.3256 43.12 52.4315 43.0761L54.3011 42.2987C54.456 42.234 54.5884 42.1232 54.681 41.9808C54.7737 41.8384 54.8223 41.6708 54.8207 41.4998C54.8191 41.3288 54.7673 41.1622 54.6719 41.0215C54.5766 40.8809 54.4422 40.7727 54.286 40.7109L52.4021 39.969C52.2952 39.9269 52.1979 39.8629 52.1162 39.7807C52.0346 39.6986 51.9703 39.6002 51.9275 39.4917L51.1689 37.575Z" fill="#FFFFE7"/>
<rect x="73.01" y="40.0776" width="5.5" height="20" rx="2.75" transform="rotate(19.46 73.01 40.0776)" fill="#4E1B76"/>
<defs>
<linearGradient id="paint0_linear_16_137" x1="32" y1="128" x2="115.5" y2="3.75754e-06" gradientUnits="userSpaceOnUse">
<stop stop-color="#360260"/>
<stop offset="1" stop-color="#420373" stop-opacity="0.74"/>
</linearGradient>
<linearGradient id="paint1_linear_16_137" x1="94.5" y1="25" x2="32" y2="125.5" gradientUnits="userSpaceOnUse">
<stop stop-color="white"/>
<stop offset="1" stop-color="white" stop-opacity="0.5"/>
</linearGradient>
</defs>
</svg>
